<svg width="20" height="20" viewBox="0 0 20 20" fill="none" xmlns="http://www.w3.org/2000/svg">
<g clip-path="url(#clip0_27_26)">
<path fill-rule="evenodd" clip-rule="evenodd" d="M1.99999 4.40002C1.99999 4.7314 2.26862 5.00002 2.59999 5.00002H17.4C17.7314 5.00003 18 4.7314 18 4.40002C18 4.06865 17.7314 3.80002 17.4 3.80002L2.59999 3.80002C2.26862 3.80002 1.99999 4.06865 1.99999 4.40002ZM2.59999 10.5C2.26862 10.5 1.99999 10.2314 1.99999 9.90002C1.99999 9.56865 2.26862 9.30002 2.59999 9.30002H17.4C17.7314 9.30002 18 9.56865 18 9.90002C18 10.2314 17.7314 10.5 17.4 10.5L2.59999 10.5ZM2.59999 16C2.26862 16 1.99999 15.7314 1.99999 15.4C1.99999 15.0687 2.26862 14.8 2.59999 14.8L17.4 14.8C17.7314 14.8 18 15.0687 18 15.4C18 15.7314 17.7314 16 17.4 16L2.59999 16Z" fill="#191919"/>
</g>
<defs>
<clipPath id="clip0_27_26">
<rect width="20" height="20" fill="white"/>
</clipPath>
</defs>
</svg>
