<svg width="20" height="20" viewBox="0 0 20 20" fill="none" xmlns="http://www.w3.org/2000/svg">
<path d="M7.15538 6.86357L9.32038 2.50357C9.3834 2.37739 9.48033 2.27126 9.60029 2.19709C9.72025 2.12291 9.8585 2.08362 9.99955 2.08362C10.1406 2.08362 10.2788 2.12291 10.3988 2.19709C10.5188 2.27126 10.6157 2.37739 10.6787 2.50357L12.8437 6.86357L17.6837 7.5669C17.8233 7.58626 17.9547 7.64448 18.0628 7.73491C18.1709 7.82535 18.2514 7.94435 18.2951 8.07834C18.3388 8.21233 18.3439 8.35592 18.31 8.4927C18.276 8.62948 18.2042 8.75395 18.1029 8.8519L14.6012 12.2436L15.4279 17.0352C15.5337 17.6502 14.8837 18.1186 14.3279 17.8286L9.99955 15.5652L5.67038 17.8286C5.11538 18.1194 4.46538 17.6502 4.57121 17.0344L5.39788 12.2427L1.89621 8.85107C1.79537 8.75305 1.72405 8.6287 1.69035 8.49217C1.65666 8.35563 1.66194 8.21238 1.7056 8.07869C1.74927 7.94501 1.82956 7.82626 1.93735 7.73593C2.04515 7.64561 2.17612 7.58733 2.31538 7.56774L7.15538 6.86357Z" fill="#191919"/>
</svg>
