<svg width="20" height="20" viewBox="0 0 20 20" fill="none" xmlns="http://www.w3.org/2000/svg">
<path fill-rule="evenodd" clip-rule="evenodd" d="M9.7999 3.40002C9.57899 3.40002 9.3999 3.57911 9.3999 3.80002V9.4H3.7999C3.57899 9.4 3.3999 9.57909 3.3999 9.8V10.2C3.3999 10.4209 3.57899 10.6 3.7999 10.6H9.3999V16.2C9.3999 16.4209 9.57899 16.6 9.7999 16.6H10.1999C10.4208 16.6 10.5999 16.4209 10.5999 16.2V10.6H16.1999C16.4208 10.6 16.5999 10.4209 16.5999 10.2V9.8C16.5999 9.57909 16.4208 9.4 16.1999 9.4H10.5999V3.80002C10.5999 3.57911 10.4208 3.40002 10.1999 3.40002H9.7999Z" fill="#191919" fill-opacity="0.6"/>
</svg>
