<svg width="20" height="20" viewBox="0 0 20 20" fill="none" xmlns="http://www.w3.org/2000/svg">
<g id="icon_share" clip-path="url(#clip0_27_57)">
<g id="Group 2611277">
<path id="Union" fill-rule="evenodd" clip-rule="evenodd" d="M13.1515 4.85882C13.1515 3.85994 13.9612 3.05018 14.9601 3.05018C15.959 3.05018 16.7687 3.85994 16.7687 4.85882C16.7687 5.85771 15.959 6.66747 14.9601 6.66747C13.9612 6.66747 13.1515 5.85771 13.1515 4.85882ZM14.9601 2C13.3812 2 12.1013 3.27994 12.1013 4.85882C12.1013 5.17933 12.154 5.48751 12.2513 5.77517L7.05992 8.37085C6.53553 7.73891 5.74418 7.33645 4.85882 7.33645C3.27994 7.33645 2 8.61639 2 10.1953C2 11.7742 3.27994 13.0541 4.85882 13.0541C5.74348 13.0541 6.53428 12.6523 7.05868 12.0212L12.1406 14.8657C12.1147 15.0203 12.1013 15.1792 12.1013 15.3412C12.1013 16.9201 13.3812 18.2 14.9601 18.2C16.539 18.2 17.8189 16.9201 17.8189 15.3412C17.8189 13.7623 16.539 12.4824 14.9601 12.4824C13.9511 12.4824 13.0641 13.0051 12.5553 13.7946L7.59709 11.0193C7.67551 10.7584 7.71765 10.4818 7.71765 10.1953C7.71765 9.91183 7.6764 9.63803 7.59958 9.37953L12.8292 6.76471C13.3527 7.34957 14.1134 7.71765 14.9601 7.71765C16.539 7.71765 17.8189 6.43771 17.8189 4.85882C17.8189 3.27994 16.539 2 14.9601 2ZM3.05018 10.1953C3.05018 9.19638 3.85994 8.38663 4.85882 8.38663C5.85771 8.38663 6.66747 9.19638 6.66747 10.1953C6.66747 11.1942 5.85771 12.0039 4.85882 12.0039C3.85994 12.0039 3.05018 11.1942 3.05018 10.1953ZM14.9601 13.5325C13.9612 13.5325 13.1515 14.3423 13.1515 15.3412C13.1515 16.3401 13.9612 17.1498 14.9601 17.1498C15.959 17.1498 16.7687 16.3401 16.7687 15.3412C16.7687 14.3423 15.959 13.5325 14.9601 13.5325Z" fill="#191919" fill-opacity="0.4"/>
</g>
</g>
<defs>
<clipPath id="clip0_27_57">
<rect width="20" height="20" fill="white"/>
</clipPath>
</defs>
</svg>
