<svg width="20" height="20" viewBox="0 0 20 20" fill="none" xmlns="http://www.w3.org/2000/svg">
<path fill-rule="evenodd" clip-rule="evenodd" d="M16.5999 4.00003C16.5999 3.79208 16.4922 3.59896 16.3153 3.48963C16.1385 3.38031 15.9176 3.37037 15.7316 3.46337L11.9999 5.32922L8.27327 3.46591L8.26818 3.46337C8.09667 3.37761 7.89548 3.37939 7.72648 3.46591L3.73157 5.46337C3.5283 5.565 3.3999 5.77276 3.3999 6.00003V16C3.3999 16.208 3.50757 16.4011 3.68446 16.5104C3.86135 16.6197 4.08224 16.6297 4.26823 16.5367L7.99988 14.6709L11.7315 16.5367C11.8079 16.5749 11.8902 16.5957 11.9729 16.5994C11.9959 16.6005 12.0189 16.6002 12.0419 16.5986C12.1195 16.5931 12.1965 16.5726 12.2682 16.5367L16.2682 14.5367C16.4715 14.435 16.5999 14.2273 16.5999 14V4.00003ZM12.5999 15.0292V6.37085L15.3999 4.97085V13.6292L12.5999 15.0292ZM7.39985 13.6292V4.97087L4.5999 6.37085V15.0292L7.39985 13.6292ZM11.3999 15.0292L8.5999 13.6292V4.97087L11.3999 6.37085V15.0292Z" fill="#191919" fill-opacity="0.4"/>
</svg>
