<svg width="94" height="15" viewBox="0 0 94 15" fill="none" xmlns="http://www.w3.org/2000/svg">
<path d="M0.892 0.68H3.718L5.05 3.92C5.428 4.928 5.788 5.846 6.202 6.872H6.274C6.688 5.846 7.084 4.928 7.462 3.92L8.794 0.68H11.566L7.552 9.122V14H4.888V9.122L0.892 0.68ZM17.875 14.252C14.347 14.252 11.917 11.606 11.917 7.286C11.917 2.948 14.347 0.428 17.875 0.428C21.403 0.428 23.833 2.966 23.833 7.286C23.833 11.606 21.403 14.252 17.875 14.252ZM17.875 11.948C19.855 11.948 21.115 10.112 21.115 7.286C21.115 4.388 19.909 2.714 17.875 2.714C15.841 2.714 14.635 4.388 14.635 7.286C14.635 10.112 15.895 11.948 17.875 11.948ZM31.3666 14.252C28.1266 14.252 26.1826 12.434 26.1826 8.006V0.68H28.8466V8.24C28.8466 11.03 29.7826 11.948 31.3666 11.948C32.9506 11.948 33.9586 11.03 33.9586 8.24V0.68H36.5146V8.006C36.5146 12.434 34.6246 14.252 31.3666 14.252ZM44.0574 8.96H42.2034V14H39.5394V0.68H44.1834C46.9914 0.68 49.1874 1.634 49.1874 4.712C49.1874 6.746 48.1794 7.952 46.6494 8.546L49.7634 14H46.7934L44.0574 8.96ZM43.9314 6.854C45.6594 6.854 46.5774 6.152 46.5774 4.712C46.5774 3.272 45.6594 2.786 43.9314 2.786H42.2034V6.854H43.9314ZM56.0029 0.68C58.9369 0.68 61.2229 1.688 61.2229 4.856C61.2229 7.898 58.9369 9.266 56.0749 9.266H54.2929V14H51.6289V0.68H56.0029ZM55.8949 7.16C57.7129 7.16 58.6129 6.386 58.6129 4.856C58.6129 3.29 57.6589 2.786 55.8049 2.786H54.2929V7.16H55.8949ZM64.3788 10.58L63.4428 14H60.7428L65.0088 0.68H68.1408L72.4248 14H69.6348L68.6988 10.58H64.3788ZM67.7268 7.052C67.3128 5.666 66.9708 4.136 66.5568 2.696H66.4848C66.1428 4.154 65.7648 5.666 65.3508 7.052L64.9548 8.51H68.1228L67.7268 7.052ZM77.7821 14.252C75.9821 14.252 74.2181 13.55 72.9221 12.308L74.4521 10.472C75.4061 11.354 76.6661 11.948 77.8361 11.948C79.2221 11.948 79.9601 11.354 79.9601 10.418C79.9601 9.41 79.1681 9.14 77.9621 8.618L76.1801 7.862C74.8301 7.286 73.4801 6.224 73.4801 4.28C73.4801 2.102 75.4061 0.428 78.0881 0.428C79.6721 0.428 81.1841 1.04 82.2641 2.138L80.9141 3.812C80.0681 3.11 79.1861 2.714 78.0881 2.714C76.9181 2.714 76.1621 3.236 76.1621 4.118C76.1621 5.018 77.1161 5.432 78.2501 5.864L79.9961 6.602C81.6521 7.268 82.6781 8.276 82.6781 10.22C82.6781 12.398 80.8601 14.252 77.7821 14.252ZM88.5005 14.252C86.7005 14.252 84.9365 13.55 83.6405 12.308L85.1705 10.472C86.1245 11.354 87.3845 11.948 88.5545 11.948C89.9405 11.948 90.6785 11.354 90.6785 10.418C90.6785 9.41 89.8865 9.14 88.6805 8.618L86.8985 7.862C85.5485 7.286 84.1985 6.224 84.1985 4.28C84.1985 2.102 86.1245 0.428 88.8065 0.428C90.3905 0.428 91.9025 1.04 92.9825 2.138L91.6325 3.812C90.7865 3.11 89.9045 2.714 88.8065 2.714C87.6365 2.714 86.8805 3.236 86.8805 4.118C86.8805 5.018 87.8345 5.432 88.9685 5.864L90.7145 6.602C92.3705 7.268 93.3965 8.276 93.3965 10.22C93.3965 12.398 91.5785 14.252 88.5005 14.252Z" fill="#191919"/>
</svg>
