<svg width="20" height="20" viewBox="0 0 20 20" fill="none" xmlns="http://www.w3.org/2000/svg">
<g id="icon_close">
<path id="Union" fill-rule="evenodd" clip-rule="evenodd" d="M5.76339 15.1581C5.9196 15.3143 6.17286 15.3143 6.32907 15.1581L10.2889 11.1982L14.2489 15.1583C14.4051 15.3145 14.6584 15.3145 14.8146 15.1583L15.1581 14.8148C15.3143 14.6586 15.3143 14.4053 15.1581 14.2491L11.198 10.2891L15.4609 6.02629C15.6171 5.87008 15.6171 5.61682 15.4608 5.46061L15.1174 5.11716C14.9612 4.96095 14.7079 4.96095 14.5517 5.11716L10.2889 9.37997L6.02629 5.11736C5.87008 4.96115 5.61682 4.96115 5.46061 5.11736L5.11716 5.46081C4.96095 5.61702 4.96095 5.87028 5.11716 6.02649L9.37977 10.2891L5.41993 14.2489C5.26372 14.4051 5.26372 14.6584 5.41993 14.8146L5.76339 15.1581Z" fill="#191919" fill-opacity="0.2"/>
</g>
</svg>
