<svg width="20" height="20" viewBox="0 0 20 20" fill="none" xmlns="http://www.w3.org/2000/svg">
<path d="M3.75 10L3.29043 9.80308C3.23652 9.92886 3.23652 10.0712 3.29043 10.197L3.75 10ZM16.25 10L16.7096 10.197C16.7635 10.0712 16.7635 9.92885 16.7096 9.80308L16.25 10ZM9.99999 13.6667C7.94073 13.6667 6.50036 12.7107 5.56081 11.7363C5.08991 11.248 4.74891 10.7585 4.52616 10.3916C4.41505 10.2086 4.33411 10.0573 4.28175 9.95365C4.25559 9.90186 4.23662 9.86207 4.22465 9.83628C4.21866 9.82339 4.21443 9.81401 4.21193 9.80839C4.21067 9.80558 4.20985 9.80371 4.20946 9.80282C4.20927 9.80237 4.20918 9.80216 4.2092 9.80221C4.20921 9.80223 4.20924 9.80231 4.2093 9.80246C4.20934 9.80253 4.2094 9.80269 4.20942 9.80272C4.20949 9.80289 4.20957 9.80308 3.75 10C3.29043 10.197 3.29052 10.1972 3.29062 10.1975C3.29066 10.1976 3.29077 10.1978 3.29086 10.198C3.29103 10.1984 3.29123 10.1989 3.29146 10.1994C3.29191 10.2004 3.29248 10.2017 3.29316 10.2033C3.29452 10.2064 3.29633 10.2105 3.29859 10.2156C3.30312 10.2257 3.30946 10.2398 3.31764 10.2574C3.334 10.2926 3.35776 10.3424 3.38915 10.4045C3.45189 10.5287 3.54533 10.703 3.67138 10.9106C3.92296 11.3249 4.3074 11.8771 4.84096 12.4304C5.91034 13.5394 7.59496 14.6667 9.99999 14.6667V13.6667ZM3.75 10C4.20957 10.197 4.20949 10.1972 4.20942 10.1974C4.2094 10.1974 4.20934 10.1976 4.2093 10.1976C4.20924 10.1978 4.20921 10.1979 4.2092 10.1979C4.20918 10.1979 4.20927 10.1977 4.20946 10.1973C4.20985 10.1964 4.21067 10.1945 4.21193 10.1917C4.21443 10.1861 4.21866 10.1767 4.22465 10.1638C4.23662 10.138 4.25559 10.0982 4.28175 10.0464C4.33411 9.94277 4.41505 9.7915 4.52616 9.60849C4.74891 9.24161 5.08991 8.75212 5.56081 8.26377C6.50036 7.28942 7.94073 6.33337 9.99999 6.33337V5.33337C7.59496 5.33337 5.91034 6.46066 4.84096 7.56964C4.3074 8.12297 3.92296 8.67514 3.67138 9.08951C3.54533 9.29712 3.45189 9.47137 3.38915 9.59558C3.35776 9.65772 3.334 9.70745 3.31764 9.74269C3.30946 9.76032 3.30312 9.77434 3.29859 9.78448C3.29633 9.78956 3.29452 9.79367 3.29316 9.79678C3.29248 9.79833 3.29191 9.79964 3.29146 9.80069C3.29123 9.80122 3.29103 9.80168 3.29086 9.80208C3.29077 9.80228 3.29066 9.80253 3.29062 9.80263C3.29052 9.80286 3.29043 9.80308 3.75 10ZM9.99999 6.33337C12.0592 6.33337 13.4996 7.28942 14.4392 8.26378C14.9101 8.75212 15.2511 9.24161 15.4738 9.60849C15.5849 9.7915 15.6659 9.94277 15.7183 10.0464C15.7444 10.0982 15.7634 10.138 15.7754 10.1638C15.7813 10.1767 15.7856 10.1861 15.7881 10.1917C15.7893 10.1945 15.7901 10.1964 15.7905 10.1973C15.7907 10.1977 15.7908 10.1979 15.7908 10.1979C15.7908 10.1979 15.7908 10.1978 15.7907 10.1976C15.7907 10.1976 15.7906 10.1974 15.7906 10.1974C15.7905 10.1972 15.7904 10.197 16.25 10C16.7096 9.80308 16.7095 9.80286 16.7094 9.80263C16.7093 9.80253 16.7092 9.80227 16.7091 9.80207C16.709 9.80168 16.7088 9.80121 16.7085 9.80069C16.7081 9.79963 16.7075 9.79833 16.7068 9.79677C16.7055 9.79366 16.7037 9.78955 16.7014 9.78448C16.6969 9.77433 16.6905 9.76032 16.6824 9.74269C16.666 9.70744 16.6422 9.65772 16.6108 9.59558C16.5481 9.47137 16.4547 9.29712 16.3286 9.08951C16.077 8.67513 15.6926 8.12296 15.159 7.56964C14.0896 6.46066 12.405 5.33337 9.99999 5.33337V6.33337ZM16.25 10C15.7904 9.80308 15.7905 9.80289 15.7906 9.80272C15.7906 9.80268 15.7907 9.80253 15.7907 9.80246C15.7908 9.80231 15.7908 9.80223 15.7908 9.8022C15.7908 9.80216 15.7907 9.80237 15.7905 9.80281C15.7901 9.80371 15.7893 9.80558 15.7881 9.80839C15.7856 9.81401 15.7813 9.82339 15.7754 9.83628C15.7634 9.86207 15.7444 9.90186 15.7183 9.95365C15.6659 10.0573 15.5849 10.2086 15.4738 10.3916C15.2511 10.7585 14.9101 11.248 14.4392 11.7363C13.4996 12.7107 12.0592 13.6667 9.99999 13.6667V14.6667C12.405 14.6667 14.0896 13.5394 15.159 12.4304C15.6926 11.8771 16.077 11.3249 16.3286 10.9106C16.4547 10.703 16.5481 10.5287 16.6108 10.4045C16.6422 10.3424 16.666 10.2926 16.6824 10.2574C16.6905 10.2398 16.6969 10.2257 16.7014 10.2156C16.7037 10.2105 16.7055 10.2064 16.7068 10.2033C16.7075 10.2018 16.7081 10.2004 16.7085 10.1994C16.7088 10.1989 16.709 10.1984 16.7091 10.198C16.7092 10.1978 16.7093 10.1976 16.7094 10.1975C16.7095 10.1972 16.7096 10.197 16.25 10ZM10 11.1667C9.25687 11.1667 8.71429 10.6124 8.71429 10H7.71429C7.71429 11.2286 8.77069 12.1667 10 12.1667V11.1667ZM11.2857 10C11.2857 10.6124 10.7431 11.1667 10 11.1667V12.1667C11.2293 12.1667 12.2857 11.2286 12.2857 10H11.2857ZM10 8.83337C10.7431 8.83337 11.2857 9.38764 11.2857 10H12.2857C12.2857 8.77149 11.2293 7.83337 10 7.83337V8.83337ZM10 7.83337C8.77069 7.83337 7.71429 8.77149 7.71429 10H8.71429C8.71429 9.38764 9.25687 8.83337 10 8.83337V7.83337Z" fill="#191919" fill-opacity="0.5"/>
</svg>
