<svg width="20" height="20" viewBox="0 0 20 20" fill="none" xmlns="http://www.w3.org/2000/svg">
<path fill-rule="evenodd" clip-rule="evenodd" d="M7.06273 3.85156C7.78261 3.55338 8.55418 3.3999 9.33337 3.3999C10.1126 3.3999 10.8841 3.55338 11.604 3.85156C12.3239 4.14975 12.978 4.5868 13.529 5.13778C14.0799 5.68875 14.517 6.34285 14.8152 7.06273C15.1134 7.78261 15.2668 8.55418 15.2668 9.33337C15.2668 10.1126 15.1134 10.8841 14.8152 11.604C14.5938 12.1384 14.2959 12.6366 13.9317 13.0832L16.4243 15.5758C16.6586 15.8101 16.6586 16.19 16.4243 16.4243C16.19 16.6586 15.8101 16.6586 15.5758 16.4243L13.0832 13.9317C12.0291 14.7914 10.7057 15.2668 9.33337 15.2668C7.75972 15.2668 6.25052 14.6417 5.13778 13.529C4.02503 12.4162 3.3999 10.907 3.3999 9.33337C3.3999 7.75972 4.02503 6.25052 5.13778 5.13778C5.68875 4.5868 6.34285 4.14975 7.06273 3.85156ZM9.33337 4.5999C8.71176 4.5999 8.09624 4.72234 7.52195 4.96022C6.94766 5.1981 6.42585 5.54676 5.9863 5.9863C5.09861 6.874 4.5999 8.07798 4.5999 9.33337C4.5999 10.5888 5.09861 11.7927 5.9863 12.6804C6.874 13.5681 8.07798 14.0668 9.33337 14.0668C10.5888 14.0668 11.7927 13.5681 12.6804 12.6804C13.12 12.2409 13.4687 11.7191 13.7065 11.1448C13.9444 10.5705 14.0668 9.95498 14.0668 9.33337C14.0668 8.71176 13.9444 8.09624 13.7065 7.52195C13.4687 6.94766 13.12 6.42585 12.6804 5.9863C12.2409 5.54676 11.7191 5.1981 11.1448 4.96022C10.5705 4.72234 9.95498 4.5999 9.33337 4.5999Z" fill="#191919"/>
</svg>
