<svg width="20" height="20" viewBox="0 0 20 20" fill="none" xmlns="http://www.w3.org/2000/svg">
<path d="M4.77493 14.7446L4.77498 14.7445C5.55834 13.3102 7.13999 12.5375 10 12.5375C12.8599 12.5375 14.4418 13.3101 15.2243 14.7448M4.77493 14.7446L14.7853 14.9842M4.77493 14.7446C4.31566 15.586 4.67296 16.5665 5.39055 17.0595M4.77493 14.7446L10 18.4875M15.2243 14.7448L14.7853 14.9842M15.2243 14.7448C15.2241 14.7446 15.224 14.7443 15.2239 14.7441L14.7853 14.9842M15.2243 14.7448C15.6844 15.5862 15.3268 16.5666 14.6094 17.0595M14.7853 14.9842C15.1021 15.5629 14.8699 16.2739 14.3263 16.6474M14.6094 17.0595C14.6095 17.0595 14.6095 17.0594 14.6096 17.0594L14.3263 16.6474M14.6094 17.0595C13.2533 17.992 11.6457 18.49 10 18.4875M14.6094 17.0595L14.3263 16.6474M14.3263 16.6474L10 18.4875M10 18.4875C8.35426 18.49 6.74666 17.992 5.39055 17.0595M5.39055 17.0595L5.6737 16.6474L5.3904 17.0594C5.39045 17.0594 5.3905 17.0595 5.39055 17.0595ZM18.5 10C18.5 14.6946 14.6946 18.5 10 18.5C5.30544 18.5 1.5 14.6946 1.5 10C1.5 5.30544 5.30544 1.5 10 1.5C14.6946 1.5 18.5 5.30544 18.5 10ZM12.2627 9.56274C12.8629 8.96263 13.2 8.14869 13.2 7.3C13.2 6.45131 12.8629 5.63737 12.2627 5.03726C11.6626 4.43714 10.8487 4.1 10 4.1C9.15131 4.1 8.33737 4.43714 7.73726 5.03726C7.13714 5.63737 6.8 6.45131 6.8 7.3C6.8 8.14869 7.13714 8.96263 7.73726 9.56274C8.33737 10.1629 9.15131 10.5 10 10.5C10.8487 10.5 11.6626 10.1629 12.2627 9.56274Z" stroke="#191919"/>
</svg>
