<svg width="20" height="20" viewBox="0 0 20 20" fill="none" xmlns="http://www.w3.org/2000/svg">
<g id="icon_heart(rn)">
<path id="Union (Stroke)" fill-rule="evenodd" clip-rule="evenodd" d="M6.05191 3.39995C3.61564 3.39995 2.01904 5.54327 2.10327 7.27073C2.19286 9.10818 3.37198 10.7251 4.11402 11.6159C4.47405 12.0482 5.43276 13.1367 6.81748 14.4673C7.50278 15.1258 8.29517 15.7847 8.95628 16.2766C9.2874 16.5231 9.57723 16.7213 9.79849 16.8551C9.88046 16.9046 9.94759 16.942 10.0001 16.9687C10.0526 16.942 10.1198 16.9046 10.2017 16.8551C10.423 16.7213 10.7128 16.5231 11.044 16.2766C11.7051 15.7847 12.4975 15.1258 13.1828 14.4673C14.5675 13.1367 15.5262 12.0482 15.8862 11.6159C16.6283 10.7251 17.8074 9.10818 17.897 7.27073C17.9812 5.54326 16.3846 3.39995 13.9483 3.39995C12.0018 3.39995 10.8418 4.73957 10.5203 5.29893C10.4133 5.48515 10.2149 5.59995 10.0001 5.59995C9.78534 5.59995 9.58694 5.48515 9.47992 5.29893C9.15843 4.73957 7.99843 3.39995 6.05191 3.39995ZM0.904693 7.32917C0.789013 4.95664 2.89073 2.19995 6.05191 2.19995C7.95896 2.19995 9.27616 3.18009 10.0001 3.99451C10.7241 3.18009 12.0413 2.19995 13.9483 2.19995C17.1095 2.19995 19.2112 4.95664 19.0955 7.32917C18.9852 9.59173 17.5655 11.4748 16.8083 12.384C16.4209 12.849 15.4321 13.9701 14.0142 15.3326C13.2895 16.0289 12.4582 16.72 11.7604 17.2393C11.412 17.4986 11.0885 17.7212 10.8225 17.882C10.6904 17.9619 10.5623 18.0327 10.4463 18.0855C10.3573 18.1261 10.1856 18.1999 10.0001 18.1999C9.81461 18.1999 9.64297 18.1261 9.55393 18.0855C9.43793 18.0327 9.30986 17.9619 9.17773 17.882C8.91171 17.7212 8.58824 17.4986 8.23989 17.2393C7.54204 16.72 6.71071 16.0289 5.98603 15.3326C4.56815 13.9701 3.57931 12.849 3.19199 12.384C2.43471 11.4748 1.01501 9.59173 0.904693 7.32917Z" fill="#191919" fill-opacity="0.4"/>
</g>
</svg>
