<svg width="20" height="20" viewBox="0 0 20 20" fill="none" xmlns="http://www.w3.org/2000/svg">
<g clip-path="url(#clip0_27_14)">
<path fill-rule="evenodd" clip-rule="evenodd" d="M7.60001 4.69993C7.60001 4.36615 7.78258 3.80186 8.20278 3.31863C8.60635 2.85453 9.19871 2.49993 10 2.49993C10.8013 2.49993 11.3937 2.85453 11.7972 3.31863C12.2174 3.80186 12.4 4.36615 12.4 4.69993V5.79993H7.60001V4.69993ZM4.46619 5.79995C4.05553 5.79995 3.71157 6.11088 3.67025 6.51946L2.7783 15.339C2.68298 16.2815 3.42287 17.1 4.37018 17.1H15.6301C16.5774 17.1 17.3173 16.2815 17.222 15.339L16.3301 6.51945C16.2887 6.11088 15.9448 5.79995 15.5341 5.79995H13.6V4.69993C13.6 4.03371 13.2826 3.19799 12.7028 2.53122C12.1063 1.84532 11.1987 1.29993 10 1.29993C8.80131 1.29993 7.89368 1.84532 7.29725 2.53122C6.71745 3.19799 6.40001 4.03371 6.40001 4.69993V5.7989L4.46619 5.79995ZM3.97221 15.4597L4.82777 6.99995H15.1725L16.0281 15.4597C16.0519 15.6953 15.867 15.9 15.6301 15.9H4.37018C4.13335 15.9 3.94838 15.6953 3.97221 15.4597Z" fill="#191919"/>
</g>
<defs>
<clipPath id="clip0_27_14">
<rect width="16" height="16" fill="white" transform="translate(2 1.19995)"/>
</clipPath>
</defs>
</svg>
