<svg width="20" height="20" viewBox="0 0 20 20" fill="none" xmlns="http://www.w3.org/2000/svg">
<g clip-path="url(#clip0_27_48)">
<path fill-rule="evenodd" clip-rule="evenodd" d="M9.9999 3.40002C10.3313 3.40002 10.5999 3.66865 10.5999 4.00002V10.0515L13.0756 7.57576C13.31 7.34145 13.6899 7.34145 13.9242 7.57576C14.1585 7.81007 14.1585 8.18997 13.9242 8.42429L10.4242 11.9243C10.1899 12.1586 9.80995 12.1586 9.57564 11.9243L6.07564 8.42429C5.84132 8.18997 5.84132 7.81007 6.07564 7.57576C6.30995 7.34145 6.68985 7.34145 6.92417 7.57576L9.3999 10.0515V4.00002C9.3999 3.66865 9.66853 3.40002 9.9999 3.40002Z" fill="#191919"/>
<path fill-rule="evenodd" clip-rule="evenodd" d="M3.9999 11.4C4.33127 11.4 4.5999 11.6687 4.5999 12V14C4.5999 14.2209 4.77899 14.4 4.9999 14.4H14.9999C15.2208 14.4 15.3999 14.2209 15.3999 14V12C15.3999 11.6687 15.6685 11.4 15.9999 11.4C16.3313 11.4 16.5999 11.6687 16.5999 12V14C16.5999 14.8837 15.8836 15.6 14.9999 15.6H4.9999C4.11625 15.6 3.3999 14.8837 3.3999 14V12C3.3999 11.6687 3.66853 11.4 3.9999 11.4Z" fill="#191919"/>
</g>
<defs>
<clipPath id="clip0_27_48">
<rect width="20" height="20" fill="white"/>
</clipPath>
</defs>
</svg>
